<svg xmlns="http://www.w3.org/2000/svg" viewBox="0 0 140 148" width="140" height="148" role="img" aria-labelledby="ic-v-dark-title">
  <title id="ic-v-dark-title">InferCheck</title>

  <circle cx="70" cy="44" r="30" fill="#1e3a8a" fill-opacity="0.35"/>
  <circle cx="70" cy="44" r="30" fill="none" stroke="#93c5fd" stroke-width="4"/>
  <line x1="93" y1="67" x2="107" y2="81" stroke="#93c5fd" stroke-width="5.5" stroke-linecap="round"/>

  <polygon points="70,24 71.1,27.2 74.5,27.2 71.8,29.1 72.9,32.3 70,30.4 67.1,32.3 68.2,29.1 65.5,27.2 68.9,27.2" fill="#FCD34D"/>
  <polygon points="86.2,29.5 87.3,32.7 90.7,32.7 88,34.6 89.1,37.8 86.2,35.9 83.3,37.8 84.4,34.6 81.7,32.7 85.1,32.7" fill="#FCD34D"/>
  <polygon points="80.4,54.8 81.5,58 84.9,58 82.2,59.9 83.3,63.1 80.4,61.2 77.5,63.1 78.6,59.9 75.9,58 79.3,58" fill="#FCD34D"/>
  <polygon points="59.6,54.8 60.7,58 64.1,58 61.4,59.9 62.5,63.1 59.6,61.2 56.7,63.1 57.8,59.9 55.1,58 58.5,58" fill="#FCD34D"/>
  <polygon points="53.8,29.5 54.9,32.7 58.3,32.7 55.6,34.6 56.7,37.8 53.8,35.9 50.9,37.8 52,34.6 49.3,32.7 52.7,32.7" fill="#FCD34D"/>

  <polyline points="54,44 64,55 86,30"
    fill="none" stroke="#4ade80" stroke-width="4"
    stroke-linecap="round" stroke-linejoin="round"/>

  <text x="70" y="108" text-anchor="middle"
    font-family="'DM Sans', 'Helvetica Neue', Arial, sans-serif"
    font-size="26" font-weight="600" fill="#f8fafc" letter-spacing="-0.6">Infer</text>
  <text x="70" y="138" text-anchor="middle"
    font-family="'DM Sans', 'Helvetica Neue', Arial, sans-serif"
    font-size="26" font-weight="600" fill="#93c5fd" letter-spacing="-0.6">Check</text>
</svg>
